<?xml version='1.0' encoding='utf-8'?>
<svg xmlns="http://www.w3.org/2000/svg" viewBox="0 0 64 64">
 <defs>
  <filter id="a">
   <feGaussianBlur stdDeviation="4.169098"/>
  </filter>
 </defs>
 <g fill="#0e232e">
  <g transform="matrix(.040538 0 0 .040538 25.935 17.736)">
   <path d="m-210.25-69.684v-10c-64.649 1.6667-129.3 3.3333-193.95 5 64.65 1.6667 129.3 3.3333 193.95 5z" fill-rule="evenodd"/>
   <path d="m-234.83-93.939l0.6667-9.9777c-87.782-4.1873-175.4-0.71844-262.97 0.94824 87.575 1.6667 175.33 1.5393 262.31 9.0295z" fill-rule="evenodd"/>
   <path d="m-254.7-126.25v-10c-96.975 1.6666-193.95 3.3333-290.92 5 96.974 1.6666 193.95 3.3333 290.92 5z" fill-rule="evenodd"/>
   <path d="m-72.371-186.89l-0.9951-9.9504c-44.162 4.9817-88.627 7.5724-133.14 7.8562-45.714 1.3698-91.527-0.14403-136.78-6.9319 21.356-4.4546 41.275-13.412 60.484-23.429 17.633-9.4211 34.61-19.938 52.349-29.089-17.964 8.7004-35.236 18.804-53.043 27.748-19.408 9.9942-39.385 19.42-60.398 24.79 45.286 7.8572 91.346 11.591 137.35 13.536h4.88e-4c44.729 0.84318 89.538-0.63238 134.17-4.5302z" fill-rule="evenodd"/>
   <path d="m-274.78-237.27l-0.2388 9.9971c112.35 1.8489 224.62-0.054993 336.84 0.43715 111.49 0.49114 223.09 3.2769 334.02 14.767-110.75-13.142-222.42-17.602-333.97-19.751-112.27-2.1651-224.56-1.9336-336.66-5.4509z" fill-rule="evenodd"/>
   <path d="m-277.53-240.56l5.259 8.5056c66.648-41.864 140.95-71.657 218.23-87.587 71.912-14.827 145.96-18.127 219.57-15.9 21.379-1.0901 43.013 2.6558 62.853 10.846 19.16 7.9093 36.631 19.692 52.419 33.291 16.157 13.919 30.646 29.731 44.3 46.185 13.3 16.03 25.79 32.731 38.413 49.318-12.389-16.762-24.642-33.635-37.734-49.873-13.438-16.667-27.747-32.728-43.809-46.968-15.697-13.918-33.185-26.07-52.557-34.4-20.051-8.6221-42.027-12.768-63.896-11.962-73.748-3.2777-148.14-1.0028-220.86 12.924-78.286 14.998-153.93 44.069-222.19 85.619z" fill-rule="evenodd"/>
   <path d="m425.28-235.83l5.3945-8.4201c-63.809-38.948-131.83-72.914-204.54-89.034 71.916 19.357 137.57 56.07 199.15 97.454z" fill-rule="evenodd"/>
   <path d="m429.51-215.94l5.3945-8.4201c-2.0938-0.87138-3.1523-1.1254-3.1462-0.8255-0.61865 0.038406-1.0488 0.098587-1.2918 0.16058-0.90723 0.18866-1.6594 0.40765-2.2688 0.60561-2.229 0.69946-4.3347 1.4888-6.3547 2.2612-6.7778 2.5832-13.428 5.3599-20.027 8.149-16.405 7.8168-32.899 15.838-49.466 24.068-4.5627-16.215-11.768-31.567-20.798-45.821-9.4927-14.329-20.502-27.526-32.287-39.879-22.709-23.802-48.279-44.399-73.129-65.727 24.095 22.178 48.958 43.677 70.62 68.038 11.245 12.645 21.643 26.026 30.427 40.354 9.4819 14.774 17.496 30.637 23.256 47.267 17.891-7.0847 36.134-13.752 54.712-20.008v-4.6e-5c6.6694-2.5483 13.312-5.0561 19.983-7.3351 2.0242-0.68951 3.971-1.3481 5.8662-1.8655 0.5686-0.14958 0.99951-0.26941 1.2996-0.30676 0.1123-0.004028 0.040039-0.004028-0.21753 0.023132 0.20166 0.29347-0.64404 0.0271-2.5732-0.73894z" fill-rule="evenodd"/>
   <path d="m480.69-53.522v-10l-521.24 5 521.24 5.0001z" fill-rule="evenodd"/>
   <path d="m-353.8-189.66l9.6567 2.5968c3.1355-13.065 4.0332-26.335 4.0151-39.379-0.31934-13.698-1.4019-27.072-1.897-40.224-11.382-7.0238-21.717-15.653-30.891-25.232-7.3955-7.5054-14.268-15.881-22.194-23.418-0.2417-12.602-0.53394-25.324-0.87549-38.166-0.34155 12.843-0.63354 25.806-0.87549 38.89 7.4131 7.8552 13.856 16.752 21.157 25.254 8.5627 9.7399 18.295 18.351 29.189 25.169v6.1e-5c-0.49512 12.765-0.56421 25.311-1.5566 37.521-0.68604 12.671-2.1836 25.212-5.728 36.989z" fill-rule="evenodd"/>
   <path d="m-414.29-337.85l-4.0613 9.1381c39.418 16.699 79.131 32.196 118.91 46.966 6.0078-1.0937 11.528-3.5539 16.371-6.7259 4.5928-3.2001 8.6086-7.0045 12.28-10.983 3.4663-3.7489 6.6392-7.6585 9.8118-11.481 2.4416-3.7726 4.7324-7.4431 7.4407-10.409-25.792-10.412-53.305-13.64-80.324-14.213-27.553-0.25119-54.979 1.8835-82.461 2.2778 27.483 0.39432 55.008-0.95215 82.406 0.087494 26.758 0.68994 53.643 3.3231 78.058 12.221-3.4228 2.0501-6.23 4.5239-8.9358 6.7724-3.3084 3.7582-6.5325 7.5109-9.9429 10.986-3.6314 3.6928-7.4441 7.1234-11.633 9.843-3.885 2.7108-8.1265 4.766-12.478 5.5297-39.028-15.85-77.597-32.369-115.44-50.009v-3.1e-5z" fill-rule="evenodd"/>
   <path d="m-311.36-213.29l8.2629-5.6316c-4.5271-5.902-8.4094-12.321-11.283-19.198-2.6306-6.2646-4.4329-12.97-5.6133-19.837-2.6343-15.291-2.5405-31.252-3.3977-47.043-0.85669 15.791-2.6787 31.544-1.7107 47.629 0.44287 7.2712 1.5776 14.583 3.6894 21.736 2.3281 7.8413 5.7876 15.346 10.052 22.344z" fill-rule="evenodd"/>
   <path d="m-376.87-155.67l9.9937 0.357c0.18701-5.7959 1.0305-11.515 2.8438-16.832 1.4653-4.3571 3.6194-8.5254 6.2666-12.387 4.1528-6.7132 10.362-12.574 16.01-19.634 88.881-2.7024 178.12-4.7806 267.73-5.1675 24.802 25.556 51.081 49.746 78.655 72.446 26.604 21.693 54.288 42.097 83.47 60.09 64.643 5.9808 129.48 7.683 194.17 7.8255 64.81 0.11762 129.59-1.3187 194.38-1.6669-64.793-0.34821-129.6 0.39172-194.37-0.4223-64.498-0.78638-128.94-3.0782-192.88-9.5816-28.57-18.102-55.558-38.573-81.416-60.304-27.812-23.144-54.439-47.8-79.708-73.84-90.897-0.38704-182.14 0.9397-273.71 2.9137-6.312 6.895-13.913 13.463-20.254 21.839v4.6e-5c-3.1643 4.4944-5.771 9.4302-7.6216 14.696-2.2261 6.4052-3.3162 13.073-3.5718 19.668z" fill-rule="evenodd"/>
   <path d="m390.85-70.84l9.9922 0.393c0.18726-28.057-8.1921-55.191-20.882-79.387-11.958-22.827-27.521-43.406-44.723-62.231 15.973 19.879 30.099 41.29 40.353 64.347 10.842 24.416 17.196 50.969 15.26 76.878z" fill-rule="evenodd"/>
   <path d="m800.59-123.5l6.7041-7.4199c-26.036-22.964-55.754-41.421-87.266-55.468-31.768-14.159-65.237-23.981-99.148-30.801-34.902-7.0205-70.308-10.926-105.74-13.047-35.703-2.1383-71.459-2.456-107.18-2.0301 35.721 0.42596 71.441 1.5966 107 4.5794 35.284 2.9607 70.428 7.6888 104.86 15.478 33.448 7.5688 66.249 18.05 97.052 32.685 30.539 14.507 59.075 33.194 83.721 56.023z" fill-rule="evenodd"/>
   <path d="m-147.27-22.073c-54.038 0-97.848-41.188-97.848-91.993 0-20.293 6.9946-39.038 18.833-54.25-4.5381 10.604-7.0554 22.184-7.0554 34.315 0 50.805 43.809 91.993 97.847 91.993 32.454 0 61.215-14.871 79.015-37.743-14.468 33.807-49.657 57.678-90.792 57.678z" stroke="#493939" stroke-linecap="round" stroke-linejoin="round" stroke-width=".42"/>
   <path d="m560.58-13.356c52.197 13.986 105.17-14.46 118.32-63.534 5.2522-19.601 3.3477-39.518-4.1504-57.275 1.6389 11.418 1.0735 23.254-2.0662 34.972-13.149 49.074-66.126 77.52-118.32 63.534-31.348-8.3996-55.28-30.208-66.554-56.908 5.2248 36.4 33.037 68.564 72.77 79.211z" stroke="#493939" stroke-linecap="round" stroke-linejoin="round" stroke-width=".42"/>
   <path d="m158.31-236.13l6.3503 7.7251c4.3337-3.7726 8.4719-8.3724 11.215-14.034 2.032-4.2372 2.8577-9.0833 2.1001-13.845-0.84619-4.6682-2.9614-8.7283-5.5537-12.123-3.0374-4.0264-6.6169-7.4035-10.299-10.441-8.7234-7.2142-18.228-13.028-27.483-19.036-9.0078-5.8631-18.058-11.667-25.682-19.237 6.9631 8.1825 15.626 14.862 24.114 21.442 8.7537 6.7992 17.678 13.34 25.377 20.911 3.2376 3.1932 6.2351 6.5121 8.4895 10.148 1.8601 3.0515 3.262 6.2519 3.4531 9.3493 0.2793 2.9993-0.62988 6.1477-2.1912 8.8672-2.2141 3.9365-5.8787 7.186-9.8901 10.273z" fill-rule="evenodd"/>
   <path d="m-8.3309-314.04l0.2236 9.9975c71.614-3.2691 142.6-11.413 214.04-13.08-71.441-1.6667-143.03 3.1586-214.26 3.0825z" fill-rule="evenodd"/>
   <path d="m39.357-232.96l9.9041 1.3821c0.78467-8.1067 0.86304-16.469-0.55298-24.703-1.3633-7.829-4.2239-15.325-8.4016-21.952-4.9243-7.7649-11.363-14.23-18.307-19.789-9.387-7.5238-19.695-13.602-30.218-19.1 9.9692 6.4483 19.62 13.428 28.037 21.578 6.2097 6.0204 11.737 12.705 15.504 20.158 3.2007 6.2927 5.0898 13.184 5.6401 20.109 0.60693 7.3596-0.21582 14.85-1.6045 22.316z" fill-rule="evenodd"/>
   <path d="m806.93-129.32l-9.283 3.7183c5.1682 12.231 9.7063 24.658 12.633 37.43 3.7925 13.733 5.6184 28.072 3.3513 41.944-27.166 5.7882-55.65 7.1493-84.304 7.9212-28.982 0.98669-58.127 1.0679-87.01 4.0332 28.975-1.8496 57.99-0.80336 87.06-0.67468 29.168-0.082657 58.81-1.2144 88.231-7.3397 3.6502-15.608 3.2998-31.915 0.93677-47.612-2.5801-13.555-6.7822-26.683-11.615-39.42z" fill-rule="evenodd"/>
   <path d="m484.31-33.337l0.8494-9.9639c-95.908-7.34-192.06-8.4076-288.06-7.5894-96.761 0.82341-193.44 3.6534-290.17 4.49 96.726 0.83667 193.48-0.32042 290.17 0.52966 95.934 0.84472 191.88 3.5693 287.21 12.534z" fill-rule="evenodd"/>
   <path d="m-247.2-57.596l1.1619-9.9323c-83.681-8.089-167.5-4.7817-251.1-3.115 83.601 1.6666 167.55 1.7149 249.94 13.047z" fill-rule="evenodd"/>
   <path d="m682.37 23.238l0.7043-9.9752c-195.49-12.97-391.39-17.159-587.19-17.934-196.35-0.77826-392.66 1.8842-588.98 2.7187 196.32 0.83446 392.66-0.15889 588.94 2.2881 195.73 2.4407 391.45 8.2899 586.53 22.902z" fill-rule="evenodd"/>
   <path d="m-239.46-41.486l1.8442-9.8285c-27.114-4.2032-53.149-16.025-75.597-32.756-22.205-16.544-41.206-37.406-58.666-59.305 16.135 22.893 33.922 44.938 55.577 63.197 21.959 18.507 48.238 32.44 76.842 38.692z" fill-rule="evenodd"/>
   <path d="m-56.059-208.94l-1.2942 9.9158c8.9446 0.7523 17.828 3.306 25.558 7.9549 7.1938 4.2824 13.458 10.366 18.733 17.275 5.5239 7.2434 10 15.395 13.958 23.815 4.096 8.7218 7.6201 17.759 11.089 26.81-2.6553-9.3222-5.3672-18.64-8.7129-27.798-3.2278-8.8421-7.0603-17.57-12.174-25.704-4.8938-7.791-11.087-14.973-18.777-20.587-8.3452-6.04-18.182-9.9338-28.38-11.68z" fill-rule="evenodd"/>
   <path d="m4.8408-204.85l-1.876 9.8225c10.95 1.6153 21.708 5.574 31.95 10.72 10.428 5.2504 20.32 11.772 29.872 18.827 9.0156 6.6616 17.713 13.843 26.402 21.053 7.116 5.9062 14.201 11.948 21.811 17.22-7.1914-5.8294-13.748-12.342-20.415-18.778-8.1238-7.8463-16.285-15.69-24.898-23.121-9.114-7.8678-18.734-15.302-29.213-21.626-10.295-6.2231-21.525-11.328-33.632-14.116z" fill-rule="evenodd"/>
   <path d="m560.58-13.356c52.197 13.986 105.17-14.46 118.32-63.534 5.2522-19.601 3.3477-39.518-4.1504-57.275 1.6389 11.418 1.0735 23.254-2.0662 34.972-13.149 49.074-66.126 77.52-118.32 63.534-31.348-8.3996-55.28-30.208-66.554-56.908 5.2248 36.4 33.037 68.564 72.77 79.211z" stroke="#493939" stroke-linecap="round" stroke-linejoin="round" stroke-width=".42"/>
  </g>
  <g transform="matrix(.040538 0 0 .040538 26.117 17.554)" filter="url(#a)">
   <path d="m-210.25-69.684v-10c-64.649 1.6667-129.3 3.3333-193.95 5 64.65 1.6667 129.3 3.3333 193.95 5z" fill-rule="evenodd"/>
   <path d="m-234.83-93.939l0.6667-9.9777c-87.782-4.1873-175.4-0.71844-262.97 0.94824 87.575 1.6667 175.33 1.5393 262.31 9.0295z" fill-rule="evenodd"/>
   <path d="m-254.7-126.25v-10c-96.975 1.6666-193.95 3.3333-290.92 5 96.974 1.6666 193.95 3.3333 290.92 5z" fill-rule="evenodd"/>
   <path d="m-72.371-186.89l-0.9951-9.9504c-44.162 4.9817-88.627 7.5724-133.14 7.8562-45.714 1.3698-91.527-0.14403-136.78-6.9319 21.356-4.4546 41.275-13.412 60.484-23.429 17.633-9.4211 34.61-19.938 52.349-29.089-17.964 8.7004-35.236 18.804-53.043 27.748-19.408 9.9942-39.385 19.42-60.398 24.79 45.286 7.8572 91.346 11.591 137.35 13.536h4.88e-4c44.729 0.84318 89.538-0.63238 134.17-4.5302z" fill-rule="evenodd"/>
   <path d="m-274.78-237.27l-0.2388 9.9971c112.35 1.8489 224.62-0.054993 336.84 0.43715 111.49 0.49114 223.09 3.2769 334.02 14.767-110.75-13.142-222.42-17.602-333.97-19.751-112.27-2.1651-224.56-1.9336-336.66-5.4509z" fill-rule="evenodd"/>
   <path d="m-277.53-240.56l5.259 8.5056c66.648-41.864 140.95-71.657 218.23-87.587 71.912-14.827 145.96-18.127 219.57-15.9 21.379-1.0901 43.013 2.6558 62.853 10.846 19.16 7.9093 36.631 19.692 52.419 33.291 16.157 13.919 30.646 29.731 44.3 46.185 13.3 16.03 25.79 32.731 38.413 49.318-12.389-16.762-24.642-33.635-37.734-49.873-13.438-16.667-27.747-32.728-43.809-46.968-15.697-13.918-33.185-26.07-52.557-34.4-20.051-8.6221-42.027-12.768-63.896-11.962-73.748-3.2777-148.14-1.0028-220.86 12.924-78.286 14.998-153.93 44.069-222.19 85.619z" fill-rule="evenodd"/>
   <path d="m425.28-235.83l5.3945-8.4201c-63.809-38.948-131.83-72.914-204.54-89.034 71.916 19.357 137.57 56.07 199.15 97.454z" fill-rule="evenodd"/>
   <path d="m429.51-215.94l5.3945-8.4201c-2.0938-0.87138-3.1523-1.1254-3.1462-0.8255-0.61865 0.038406-1.0488 0.098587-1.2918 0.16058-0.90723 0.18866-1.6594 0.40765-2.2688 0.60561-2.229 0.69946-4.3347 1.4888-6.3547 2.2612-6.7778 2.5832-13.428 5.3599-20.027 8.149-16.405 7.8168-32.899 15.838-49.466 24.068-4.5627-16.215-11.768-31.567-20.798-45.821-9.4927-14.329-20.502-27.526-32.287-39.879-22.709-23.802-48.279-44.399-73.129-65.727 24.095 22.178 48.958 43.677 70.62 68.038 11.245 12.645 21.643 26.026 30.427 40.354 9.4819 14.774 17.496 30.637 23.256 47.267 17.891-7.0847 36.134-13.752 54.712-20.008v-4.6e-5c6.6694-2.5483 13.312-5.0561 19.983-7.3351 2.0242-0.68951 3.971-1.3481 5.8662-1.8655 0.5686-0.14958 0.99951-0.26941 1.2996-0.30676 0.1123-0.004028 0.040039-0.004028-0.21753 0.023132 0.20166 0.29347-0.64404 0.0271-2.5732-0.73894z" fill-rule="evenodd"/>
   <path d="m480.69-53.522v-10l-521.24 5 521.24 5.0001z" fill-rule="evenodd"/>
   <path d="m-353.8-189.66l9.6567 2.5968c3.1355-13.065 4.0332-26.335 4.0151-39.379-0.31934-13.698-1.4019-27.072-1.897-40.224-11.382-7.0238-21.717-15.653-30.891-25.232-7.3955-7.5054-14.268-15.881-22.194-23.418-0.2417-12.602-0.53394-25.324-0.87549-38.166-0.34155 12.843-0.63354 25.806-0.87549 38.89 7.4131 7.8552 13.856 16.752 21.157 25.254 8.5627 9.7399 18.295 18.351 29.189 25.169v6.1e-5c-0.49512 12.765-0.56421 25.311-1.5566 37.521-0.68604 12.671-2.1836 25.212-5.728 36.989z" fill-rule="evenodd"/>
   <path d="m-414.29-337.85l-4.0613 9.1381c39.418 16.699 79.131 32.196 118.91 46.966 6.0078-1.0937 11.528-3.5539 16.371-6.7259 4.5928-3.2001 8.6086-7.0045 12.28-10.983 3.4663-3.7489 6.6392-7.6585 9.8118-11.481 2.4416-3.7726 4.7324-7.4431 7.4407-10.409-25.792-10.412-53.305-13.64-80.324-14.213-27.553-0.25119-54.979 1.8835-82.461 2.2778 27.483 0.39432 55.008-0.95215 82.406 0.087494 26.758 0.68994 53.643 3.3231 78.058 12.221-3.4228 2.0501-6.23 4.5239-8.9358 6.7724-3.3084 3.7582-6.5325 7.5109-9.9429 10.986-3.6314 3.6928-7.4441 7.1234-11.633 9.843-3.885 2.7108-8.1265 4.766-12.478 5.5297-39.028-15.85-77.597-32.369-115.44-50.009v-3.1e-5z" fill-rule="evenodd"/>
   <path d="m-311.36-213.29l8.2629-5.6316c-4.5271-5.902-8.4094-12.321-11.283-19.198-2.6306-6.2646-4.4329-12.97-5.6133-19.837-2.6343-15.291-2.5405-31.252-3.3977-47.043-0.85669 15.791-2.6787 31.544-1.7107 47.629 0.44287 7.2712 1.5776 14.583 3.6894 21.736 2.3281 7.8413 5.7876 15.346 10.052 22.344z" fill-rule="evenodd"/>
   <path d="m-376.87-155.67l9.9937 0.357c0.18701-5.7959 1.0305-11.515 2.8438-16.832 1.4653-4.3571 3.6194-8.5254 6.2666-12.387 4.1528-6.7132 10.362-12.574 16.01-19.634 88.881-2.7024 178.12-4.7806 267.73-5.1675 24.802 25.556 51.081 49.746 78.655 72.446 26.604 21.693 54.288 42.097 83.47 60.09 64.643 5.9808 129.48 7.683 194.17 7.8255 64.81 0.11762 129.59-1.3187 194.38-1.6669-64.793-0.34821-129.6 0.39172-194.37-0.4223-64.498-0.78638-128.94-3.0782-192.88-9.5816-28.57-18.102-55.558-38.573-81.416-60.304-27.812-23.144-54.439-47.8-79.708-73.84-90.897-0.38704-182.14 0.9397-273.71 2.9137-6.312 6.895-13.913 13.463-20.254 21.839v4.6e-5c-3.1643 4.4944-5.771 9.4302-7.6216 14.696-2.2261 6.4052-3.3162 13.073-3.5718 19.668z" fill-rule="evenodd"/>
   <path d="m390.85-70.84l9.9922 0.393c0.18726-28.057-8.1921-55.191-20.882-79.387-11.958-22.827-27.521-43.406-44.723-62.231 15.973 19.879 30.099 41.29 40.353 64.347 10.842 24.416 17.196 50.969 15.26 76.878z" fill-rule="evenodd"/>
   <path d="m800.59-123.5l6.7041-7.4199c-26.036-22.964-55.754-41.421-87.266-55.468-31.768-14.159-65.237-23.981-99.148-30.801-34.902-7.0205-70.308-10.926-105.74-13.047-35.703-2.1383-71.459-2.456-107.18-2.0301 35.721 0.42596 71.441 1.5966 107 4.5794 35.284 2.9607 70.428 7.6888 104.86 15.478 33.448 7.5688 66.249 18.05 97.052 32.685 30.539 14.507 59.075 33.194 83.721 56.023z" fill-rule="evenodd"/>
   <path d="m-147.27-22.073c-54.038 0-97.848-41.188-97.848-91.993 0-20.293 6.9946-39.038 18.833-54.25-4.5381 10.604-7.0554 22.184-7.0554 34.315 0 50.805 43.809 91.993 97.847 91.993 32.454 0 61.215-14.871 79.015-37.743-14.468 33.807-49.657 57.678-90.792 57.678z" stroke="#493939" stroke-linecap="round" stroke-linejoin="round" stroke-width=".42"/>
   <path d="m560.58-13.356c52.197 13.986 105.17-14.46 118.32-63.534 5.2522-19.601 3.3477-39.518-4.1504-57.275 1.6389 11.418 1.0735 23.254-2.0662 34.972-13.149 49.074-66.126 77.52-118.32 63.534-31.348-8.3996-55.28-30.208-66.554-56.908 5.2248 36.4 33.037 68.564 72.77 79.211z" stroke="#493939" stroke-linecap="round" stroke-linejoin="round" stroke-width=".42"/>
   <path d="m158.31-236.13l6.3503 7.7251c4.3337-3.7726 8.4719-8.3724 11.215-14.034 2.032-4.2372 2.8577-9.0833 2.1001-13.845-0.84619-4.6682-2.9614-8.7283-5.5537-12.123-3.0374-4.0264-6.6169-7.4035-10.299-10.441-8.7234-7.2142-18.228-13.028-27.483-19.036-9.0078-5.8631-18.058-11.667-25.682-19.237 6.9631 8.1825 15.626 14.862 24.114 21.442 8.7537 6.7992 17.678 13.34 25.377 20.911 3.2376 3.1932 6.2351 6.5121 8.4895 10.148 1.8601 3.0515 3.262 6.2519 3.4531 9.3493 0.2793 2.9993-0.62988 6.1477-2.1912 8.8672-2.2141 3.9365-5.8787 7.186-9.8901 10.273z" fill-rule="evenodd"/>
   <path d="m-8.3309-314.04l0.2236 9.9975c71.614-3.2691 142.6-11.413 214.04-13.08-71.441-1.6667-143.03 3.1586-214.26 3.0825z" fill-rule="evenodd"/>
   <path d="m39.357-232.96l9.9041 1.3821c0.78467-8.1067 0.86304-16.469-0.55298-24.703-1.3633-7.829-4.2239-15.325-8.4016-21.952-4.9243-7.7649-11.363-14.23-18.307-19.789-9.387-7.5238-19.695-13.602-30.218-19.1 9.9692 6.4483 19.62 13.428 28.037 21.578 6.2097 6.0204 11.737 12.705 15.504 20.158 3.2007 6.2927 5.0898 13.184 5.6401 20.109 0.60693 7.3596-0.21582 14.85-1.6045 22.316z" fill-rule="evenodd"/>
   <path d="m806.93-129.32l-9.283 3.7183c5.1682 12.231 9.7063 24.658 12.633 37.43 3.7925 13.733 5.6184 28.072 3.3513 41.944-27.166 5.7882-55.65 7.1493-84.304 7.9212-28.982 0.98669-58.127 1.0679-87.01 4.0332 28.975-1.8496 57.99-0.80336 87.06-0.67468 29.168-0.082657 58.81-1.2144 88.231-7.3397 3.6502-15.608 3.2998-31.915 0.93677-47.612-2.5801-13.555-6.7822-26.683-11.615-39.42z" fill-rule="evenodd"/>
   <path d="m484.31-33.337l0.8494-9.9639c-95.908-7.34-192.06-8.4076-288.06-7.5894-96.761 0.82341-193.44 3.6534-290.17 4.49 96.726 0.83667 193.48-0.32042 290.17 0.52966 95.934 0.84472 191.88 3.5693 287.21 12.534z" fill-rule="evenodd"/>
   <path d="m-247.2-57.596l1.1619-9.9323c-83.681-8.089-167.5-4.7817-251.1-3.115 83.601 1.6666 167.55 1.7149 249.94 13.047z" fill-rule="evenodd"/>
   <path d="m682.37 23.238l0.7043-9.9752c-195.49-12.97-391.39-17.159-587.19-17.934-196.35-0.77826-392.66 1.8842-588.98 2.7187 196.32 0.83446 392.66-0.15889 588.94 2.2881 195.73 2.4407 391.45 8.2899 586.53 22.902z" fill-rule="evenodd"/>
   <path d="m-239.46-41.486l1.8442-9.8285c-27.114-4.2032-53.149-16.025-75.597-32.756-22.205-16.544-41.206-37.406-58.666-59.305 16.135 22.893 33.922 44.938 55.577 63.197 21.959 18.507 48.238 32.44 76.842 38.692z" fill-rule="evenodd"/>
   <path d="m-56.059-208.94l-1.2942 9.9158c8.9446 0.7523 17.828 3.306 25.558 7.9549 7.1938 4.2824 13.458 10.366 18.733 17.275 5.5239 7.2434 10 15.395 13.958 23.815 4.096 8.7218 7.6201 17.759 11.089 26.81-2.6553-9.3222-5.3672-18.64-8.7129-27.798-3.2278-8.8421-7.0603-17.57-12.174-25.704-4.8938-7.791-11.087-14.973-18.777-20.587-8.3452-6.04-18.182-9.9338-28.38-11.68z" fill-rule="evenodd"/>
   <path d="m4.8408-204.85l-1.876 9.8225c10.95 1.6153 21.708 5.574 31.95 10.72 10.428 5.2504 20.32 11.772 29.872 18.827 9.0156 6.6616 17.713 13.843 26.402 21.053 7.116 5.9062 14.201 11.948 21.811 17.22-7.1914-5.8294-13.748-12.342-20.415-18.778-8.1238-7.8463-16.285-15.69-24.898-23.121-9.114-7.8678-18.734-15.302-29.213-21.626-10.295-6.2231-21.525-11.328-33.632-14.116z" fill-rule="evenodd"/>
   <path d="m560.58-13.356c52.197 13.986 105.17-14.46 118.32-63.534 5.2522-19.601 3.3477-39.518-4.1504-57.275 1.6389 11.418 1.0735 23.254-2.0662 34.972-13.149 49.074-66.126 77.52-118.32 63.534-31.348-8.3996-55.28-30.208-66.554-56.908 5.2248 36.4 33.037 68.564 72.77 79.211z" stroke="#493939" stroke-linecap="round" stroke-linejoin="round" stroke-width=".42"/>
  </g>
  <g transform="matrix(.040538 0 0 .040538 26.298 17.736)" filter="url(#a)">
   <path d="m-210.25-69.684v-10c-64.649 1.6667-129.3 3.3333-193.95 5 64.65 1.6667 129.3 3.3333 193.95 5z" fill-rule="evenodd"/>
   <path d="m-234.83-93.939l0.6667-9.9777c-87.782-4.1873-175.4-0.71844-262.97 0.94824 87.575 1.6667 175.33 1.5393 262.31 9.0295z" fill-rule="evenodd"/>
   <path d="m-254.7-126.25v-10c-96.975 1.6666-193.95 3.3333-290.92 5 96.974 1.6666 193.95 3.3333 290.92 5z" fill-rule="evenodd"/>
   <path d="m-72.371-186.89l-0.9951-9.9504c-44.162 4.9817-88.627 7.5724-133.14 7.8562-45.714 1.3698-91.527-0.14403-136.78-6.9319 21.356-4.4546 41.275-13.412 60.484-23.429 17.633-9.4211 34.61-19.938 52.349-29.089-17.964 8.7004-35.236 18.804-53.043 27.748-19.408 9.9942-39.385 19.42-60.398 24.79 45.286 7.8572 91.346 11.591 137.35 13.536h4.88e-4c44.729 0.84318 89.538-0.63238 134.17-4.5302z" fill-rule="evenodd"/>
   <path d="m-274.78-237.27l-0.2388 9.9971c112.35 1.8489 224.62-0.054993 336.84 0.43715 111.49 0.49114 223.09 3.2769 334.02 14.767-110.75-13.142-222.42-17.602-333.97-19.751-112.27-2.1651-224.56-1.9336-336.66-5.4509z" fill-rule="evenodd"/>
   <path d="m-277.53-240.56l5.259 8.5056c66.648-41.864 140.95-71.657 218.23-87.587 71.912-14.827 145.96-18.127 219.57-15.9 21.379-1.0901 43.013 2.6558 62.853 10.846 19.16 7.9093 36.631 19.692 52.419 33.291 16.157 13.919 30.646 29.731 44.3 46.185 13.3 16.03 25.79 32.731 38.413 49.318-12.389-16.762-24.642-33.635-37.734-49.873-13.438-16.667-27.747-32.728-43.809-46.968-15.697-13.918-33.185-26.07-52.557-34.4-20.051-8.6221-42.027-12.768-63.896-11.962-73.748-3.2777-148.14-1.0028-220.86 12.924-78.286 14.998-153.93 44.069-222.19 85.619z" fill-rule="evenodd"/>
   <path d="m425.28-235.83l5.3945-8.4201c-63.809-38.948-131.83-72.914-204.54-89.034 71.916 19.357 137.57 56.07 199.15 97.454z" fill-rule="evenodd"/>
   <path d="m429.51-215.94l5.3945-8.4201c-2.0938-0.87138-3.1523-1.1254-3.1462-0.8255-0.61865 0.038406-1.0488 0.098587-1.2918 0.16058-0.90723 0.18866-1.6594 0.40765-2.2688 0.60561-2.229 0.69946-4.3347 1.4888-6.3547 2.2612-6.7778 2.5832-13.428 5.3599-20.027 8.149-16.405 7.8168-32.899 15.838-49.466 24.068-4.5627-16.215-11.768-31.567-20.798-45.821-9.4927-14.329-20.502-27.526-32.287-39.879-22.709-23.802-48.279-44.399-73.129-65.727 24.095 22.178 48.958 43.677 70.62 68.038 11.245 12.645 21.643 26.026 30.427 40.354 9.4819 14.774 17.496 30.637 23.256 47.267 17.891-7.0847 36.134-13.752 54.712-20.008v-4.6e-5c6.6694-2.5483 13.312-5.0561 19.983-7.3351 2.0242-0.68951 3.971-1.3481 5.8662-1.8655 0.5686-0.14958 0.99951-0.26941 1.2996-0.30676 0.1123-0.004028 0.040039-0.004028-0.21753 0.023132 0.20166 0.29347-0.64404 0.0271-2.5732-0.73894z" fill-rule="evenodd"/>
   <path d="m480.69-53.522v-10l-521.24 5 521.24 5.0001z" fill-rule="evenodd"/>
   <path d="m-353.8-189.66l9.6567 2.5968c3.1355-13.065 4.0332-26.335 4.0151-39.379-0.31934-13.698-1.4019-27.072-1.897-40.224-11.382-7.0238-21.717-15.653-30.891-25.232-7.3955-7.5054-14.268-15.881-22.194-23.418-0.2417-12.602-0.53394-25.324-0.87549-38.166-0.34155 12.843-0.63354 25.806-0.87549 38.89 7.4131 7.8552 13.856 16.752 21.157 25.254 8.5627 9.7399 18.295 18.351 29.189 25.169v6.1e-5c-0.49512 12.765-0.56421 25.311-1.5566 37.521-0.68604 12.671-2.1836 25.212-5.728 36.989z" fill-rule="evenodd"/>
   <path d="m-414.29-337.85l-4.0613 9.1381c39.418 16.699 79.131 32.196 118.91 46.966 6.0078-1.0937 11.528-3.5539 16.371-6.7259 4.5928-3.2001 8.6086-7.0045 12.28-10.983 3.4663-3.7489 6.6392-7.6585 9.8118-11.481 2.4416-3.7726 4.7324-7.4431 7.4407-10.409-25.792-10.412-53.305-13.64-80.324-14.213-27.553-0.25119-54.979 1.8835-82.461 2.2778 27.483 0.39432 55.008-0.95215 82.406 0.087494 26.758 0.68994 53.643 3.3231 78.058 12.221-3.4228 2.0501-6.23 4.5239-8.9358 6.7724-3.3084 3.7582-6.5325 7.5109-9.9429 10.986-3.6314 3.6928-7.4441 7.1234-11.633 9.843-3.885 2.7108-8.1265 4.766-12.478 5.5297-39.028-15.85-77.597-32.369-115.44-50.009v-3.1e-5z" fill-rule="evenodd"/>
   <path d="m-311.36-213.29l8.2629-5.6316c-4.5271-5.902-8.4094-12.321-11.283-19.198-2.6306-6.2646-4.4329-12.97-5.6133-19.837-2.6343-15.291-2.5405-31.252-3.3977-47.043-0.85669 15.791-2.6787 31.544-1.7107 47.629 0.44287 7.2712 1.5776 14.583 3.6894 21.736 2.3281 7.8413 5.7876 15.346 10.052 22.344z" fill-rule="evenodd"/>
   <path d="m-376.87-155.67l9.9937 0.357c0.18701-5.7959 1.0305-11.515 2.8438-16.832 1.4653-4.3571 3.6194-8.5254 6.2666-12.387 4.1528-6.7132 10.362-12.574 16.01-19.634 88.881-2.7024 178.12-4.7806 267.73-5.1675 24.802 25.556 51.081 49.746 78.655 72.446 26.604 21.693 54.288 42.097 83.47 60.09 64.643 5.9808 129.48 7.683 194.17 7.8255 64.81 0.11762 129.59-1.3187 194.38-1.6669-64.793-0.34821-129.6 0.39172-194.37-0.4223-64.498-0.78638-128.94-3.0782-192.88-9.5816-28.57-18.102-55.558-38.573-81.416-60.304-27.812-23.144-54.439-47.8-79.708-73.84-90.897-0.38704-182.14 0.9397-273.71 2.9137-6.312 6.895-13.913 13.463-20.254 21.839v4.6e-5c-3.1643 4.4944-5.771 9.4302-7.6216 14.696-2.2261 6.4052-3.3162 13.073-3.5718 19.668z" fill-rule="evenodd"/>
   <path d="m390.85-70.84l9.9922 0.393c0.18726-28.057-8.1921-55.191-20.882-79.387-11.958-22.827-27.521-43.406-44.723-62.231 15.973 19.879 30.099 41.29 40.353 64.347 10.842 24.416 17.196 50.969 15.26 76.878z" fill-rule="evenodd"/>
   <path d="m800.59-123.5l6.7041-7.4199c-26.036-22.964-55.754-41.421-87.266-55.468-31.768-14.159-65.237-23.981-99.148-30.801-34.902-7.0205-70.308-10.926-105.74-13.047-35.703-2.1383-71.459-2.456-107.18-2.0301 35.721 0.42596 71.441 1.5966 107 4.5794 35.284 2.9607 70.428 7.6888 104.86 15.478 33.448 7.5688 66.249 18.05 97.052 32.685 30.539 14.507 59.075 33.194 83.721 56.023z" fill-rule="evenodd"/>
   <path d="m-147.27-22.073c-54.038 0-97.848-41.188-97.848-91.993 0-20.293 6.9946-39.038 18.833-54.25-4.5381 10.604-7.0554 22.184-7.0554 34.315 0 50.805 43.809 91.993 97.847 91.993 32.454 0 61.215-14.871 79.015-37.743-14.468 33.807-49.657 57.678-90.792 57.678z" stroke="#493939" stroke-linecap="round" stroke-linejoin="round" stroke-width=".42"/>
   <path d="m560.58-13.356c52.197 13.986 105.17-14.46 118.32-63.534 5.2522-19.601 3.3477-39.518-4.1504-57.275 1.6389 11.418 1.0735 23.254-2.0662 34.972-13.149 49.074-66.126 77.52-118.32 63.534-31.348-8.3996-55.28-30.208-66.554-56.908 5.2248 36.4 33.037 68.564 72.77 79.211z" stroke="#493939" stroke-linecap="round" stroke-linejoin="round" stroke-width=".42"/>
   <path d="m158.31-236.13l6.3503 7.7251c4.3337-3.7726 8.4719-8.3724 11.215-14.034 2.032-4.2372 2.8577-9.0833 2.1001-13.845-0.84619-4.6682-2.9614-8.7283-5.5537-12.123-3.0374-4.0264-6.6169-7.4035-10.299-10.441-8.7234-7.2142-18.228-13.028-27.483-19.036-9.0078-5.8631-18.058-11.667-25.682-19.237 6.9631 8.1825 15.626 14.862 24.114 21.442 8.7537 6.7992 17.678 13.34 25.377 20.911 3.2376 3.1932 6.2351 6.5121 8.4895 10.148 1.8601 3.0515 3.262 6.2519 3.4531 9.3493 0.2793 2.9993-0.62988 6.1477-2.1912 8.8672-2.2141 3.9365-5.8787 7.186-9.8901 10.273z" fill-rule="evenodd"/>
   <path d="m-8.3309-314.04l0.2236 9.9975c71.614-3.2691 142.6-11.413 214.04-13.08-71.441-1.6667-143.03 3.1586-214.26 3.0825z" fill-rule="evenodd"/>
   <path d="m39.357-232.96l9.9041 1.3821c0.78467-8.1067 0.86304-16.469-0.55298-24.703-1.3633-7.829-4.2239-15.325-8.4016-21.952-4.9243-7.7649-11.363-14.23-18.307-19.789-9.387-7.5238-19.695-13.602-30.218-19.1 9.9692 6.4483 19.62 13.428 28.037 21.578 6.2097 6.0204 11.737 12.705 15.504 20.158 3.2007 6.2927 5.0898 13.184 5.6401 20.109 0.60693 7.3596-0.21582 14.85-1.6045 22.316z" fill-rule="evenodd"/>
   <path d="m806.93-129.32l-9.283 3.7183c5.1682 12.231 9.7063 24.658 12.633 37.43 3.7925 13.733 5.6184 28.072 3.3513 41.944-27.166 5.7882-55.65 7.1493-84.304 7.9212-28.982 0.98669-58.127 1.0679-87.01 4.0332 28.975-1.8496 57.99-0.80336 87.06-0.67468 29.168-0.082657 58.81-1.2144 88.231-7.3397 3.6502-15.608 3.2998-31.915 0.93677-47.612-2.5801-13.555-6.7822-26.683-11.615-39.42z" fill-rule="evenodd"/>
   <path d="m484.31-33.337l0.8494-9.9639c-95.908-7.34-192.06-8.4076-288.06-7.5894-96.761 0.82341-193.44 3.6534-290.17 4.49 96.726 0.83667 193.48-0.32042 290.17 0.52966 95.934 0.84472 191.88 3.5693 287.21 12.534z" fill-rule="evenodd"/>
   <path d="m-247.2-57.596l1.1619-9.9323c-83.681-8.089-167.5-4.7817-251.1-3.115 83.601 1.6666 167.55 1.7149 249.94 13.047z" fill-rule="evenodd"/>
   <path d="m682.37 23.238l0.7043-9.9752c-195.49-12.97-391.39-17.159-587.19-17.934-196.35-0.77826-392.66 1.8842-588.98 2.7187 196.32 0.83446 392.66-0.15889 588.94 2.2881 195.73 2.4407 391.45 8.2899 586.53 22.902z" fill-rule="evenodd"/>
   <path d="m-239.46-41.486l1.8442-9.8285c-27.114-4.2032-53.149-16.025-75.597-32.756-22.205-16.544-41.206-37.406-58.666-59.305 16.135 22.893 33.922 44.938 55.577 63.197 21.959 18.507 48.238 32.44 76.842 38.692z" fill-rule="evenodd"/>
   <path d="m-56.059-208.94l-1.2942 9.9158c8.9446 0.7523 17.828 3.306 25.558 7.9549 7.1938 4.2824 13.458 10.366 18.733 17.275 5.5239 7.2434 10 15.395 13.958 23.815 4.096 8.7218 7.6201 17.759 11.089 26.81-2.6553-9.3222-5.3672-18.64-8.7129-27.798-3.2278-8.8421-7.0603-17.57-12.174-25.704-4.8938-7.791-11.087-14.973-18.777-20.587-8.3452-6.04-18.182-9.9338-28.38-11.68z" fill-rule="evenodd"/>
   <path d="m4.8408-204.85l-1.876 9.8225c10.95 1.6153 21.708 5.574 31.95 10.72 10.428 5.2504 20.32 11.772 29.872 18.827 9.0156 6.6616 17.713 13.843 26.402 21.053 7.116 5.9062 14.201 11.948 21.811 17.22-7.1914-5.8294-13.748-12.342-20.415-18.778-8.1238-7.8463-16.285-15.69-24.898-23.121-9.114-7.8678-18.734-15.302-29.213-21.626-10.295-6.2231-21.525-11.328-33.632-14.116z" fill-rule="evenodd"/>
   <path d="m560.58-13.356c52.197 13.986 105.17-14.46 118.32-63.534 5.2522-19.601 3.3477-39.518-4.1504-57.275 1.6389 11.418 1.0735 23.254-2.0662 34.972-13.149 49.074-66.126 77.52-118.32 63.534-31.348-8.3996-55.28-30.208-66.554-56.908 5.2248 36.4 33.037 68.564 72.77 79.211z" stroke="#493939" stroke-linecap="round" stroke-linejoin="round" stroke-width=".42"/>
  </g>
 </g>
</svg>